<svg xmlns="http://www.w3.org/2000/svg" viewBox="0 0 100 100" fill="none">
  <!-- Background -->
  <rect width="100" height="100" fill="#0c0a09"/>

  <!-- Outer crop-mark corners (top-left) -->
  <line x1="6" y1="14" x2="6" y2="6"  stroke="#7aad97" stroke-width="1.2"/>
  <line x1="6" y1="6"  x2="14" y2="6" stroke="#7aad97" stroke-width="1.2"/>
  <!-- top-right -->
  <line x1="94" y1="14" x2="94" y2="6"  stroke="#7aad97" stroke-width="1.2"/>
  <line x1="94" y1="6"  x2="86" y2="6"  stroke="#7aad97" stroke-width="1.2"/>
  <!-- bottom-left -->
  <line x1="6" y1="86" x2="6"  y2="94" stroke="#7aad97" stroke-width="1.2"/>
  <line x1="6" y1="94" x2="14" y2="94" stroke="#7aad97" stroke-width="1.2"/>
  <!-- bottom-right -->
  <line x1="94" y1="86" x2="94" y2="94" stroke="#7aad97" stroke-width="1.2"/>
  <line x1="94" y1="94" x2="86" y2="94" stroke="#7aad97" stroke-width="1.2"/>

  <!-- Inner grid square border -->
  <rect x="22" y="22" width="56" height="56" stroke="#7aad97" stroke-width="0.8" stroke-opacity="0.6"/>

  <!-- Crosshair lines -->
  <line x1="50" y1="22" x2="50" y2="78" stroke="#7aad97" stroke-width="0.7" stroke-opacity="0.5"/>
  <line x1="22" y1="50" x2="78" y2="50" stroke="#7aad97" stroke-width="0.7" stroke-opacity="0.5"/>

  <!-- Dot grid (7x7, skipping center 3x3 area) -->
  <!-- Row 1 -->
  <circle cx="28" cy="28" r="0.9" fill="#7aad97" fill-opacity="0.35"/>
  <circle cx="35" cy="28" r="0.9" fill="#7aad97" fill-opacity="0.35"/>
  <circle cx="42" cy="28" r="0.9" fill="#7aad97" fill-opacity="0.35"/>
  <circle cx="50" cy="28" r="0.9" fill="#7aad97" fill-opacity="0.35"/>
  <circle cx="58" cy="28" r="0.9" fill="#7aad97" fill-opacity="0.35"/>
  <circle cx="65" cy="28" r="0.9" fill="#7aad97" fill-opacity="0.35"/>
  <circle cx="72" cy="28" r="0.9" fill="#7aad97" fill-opacity="0.35"/>
  <!-- Row 2 -->
  <circle cx="28" cy="35" r="0.9" fill="#7aad97" fill-opacity="0.35"/>
  <circle cx="35" cy="35" r="0.9" fill="#7aad97" fill-opacity="0.35"/>
  <circle cx="42" cy="35" r="0.9" fill="#7aad97" fill-opacity="0.35"/>
  <circle cx="50" cy="35" r="0.9" fill="#7aad97" fill-opacity="0.35"/>
  <circle cx="58" cy="35" r="0.9" fill="#7aad97" fill-opacity="0.35"/>
  <circle cx="65" cy="35" r="0.9" fill="#7aad97" fill-opacity="0.35"/>
  <circle cx="72" cy="35" r="0.9" fill="#7aad97" fill-opacity="0.35"/>
  <!-- Row 3 -->
  <circle cx="28" cy="42" r="0.9" fill="#7aad97" fill-opacity="0.35"/>
  <circle cx="35" cy="42" r="0.9" fill="#7aad97" fill-opacity="0.35"/>
  <circle cx="42" cy="42" r="0.9" fill="#7aad97" fill-opacity="0.35"/>
  <circle cx="58" cy="42" r="0.9" fill="#7aad97" fill-opacity="0.35"/>
  <circle cx="65" cy="42" r="0.9" fill="#7aad97" fill-opacity="0.35"/>
  <circle cx="72" cy="42" r="0.9" fill="#7aad97" fill-opacity="0.35"/>
  <!-- Row 4 -->
  <circle cx="28" cy="50" r="0.9" fill="#7aad97" fill-opacity="0.35"/>
  <circle cx="35" cy="50" r="0.9" fill="#7aad97" fill-opacity="0.35"/>
  <circle cx="42" cy="50" r="0.9" fill="#7aad97" fill-opacity="0.35"/>
  <circle cx="58" cy="50" r="0.9" fill="#7aad97" fill-opacity="0.35"/>
  <circle cx="65" cy="50" r="0.9" fill="#7aad97" fill-opacity="0.35"/>
  <circle cx="72" cy="50" r="0.9" fill="#7aad97" fill-opacity="0.35"/>
  <!-- Row 5 -->
  <circle cx="28" cy="58" r="0.9" fill="#7aad97" fill-opacity="0.35"/>
  <circle cx="35" cy="58" r="0.9" fill="#7aad97" fill-opacity="0.35"/>
  <circle cx="42" cy="58" r="0.9" fill="#7aad97" fill-opacity="0.35"/>
  <circle cx="58" cy="58" r="0.9" fill="#7aad97" fill-opacity="0.35"/>
  <circle cx="65" cy="58" r="0.9" fill="#7aad97" fill-opacity="0.35"/>
  <circle cx="72" cy="58" r="0.9" fill="#7aad97" fill-opacity="0.35"/>
  <!-- Row 6 -->
  <circle cx="28" cy="65" r="0.9" fill="#7aad97" fill-opacity="0.35"/>
  <circle cx="35" cy="65" r="0.9" fill="#7aad97" fill-opacity="0.35"/>
  <circle cx="42" cy="65" r="0.9" fill="#7aad97" fill-opacity="0.35"/>
  <circle cx="50" cy="65" r="0.9" fill="#7aad97" fill-opacity="0.35"/>
  <circle cx="58" cy="65" r="0.9" fill="#7aad97" fill-opacity="0.35"/>
  <circle cx="65" cy="65" r="0.9" fill="#7aad97" fill-opacity="0.35"/>
  <circle cx="72" cy="65" r="0.9" fill="#7aad97" fill-opacity="0.35"/>
  <!-- Row 7 -->
  <circle cx="28" cy="72" r="0.9" fill="#7aad97" fill-opacity="0.35"/>
  <circle cx="35" cy="72" r="0.9" fill="#7aad97" fill-opacity="0.35"/>
  <circle cx="42" cy="72" r="0.9" fill="#7aad97" fill-opacity="0.35"/>
  <circle cx="50" cy="72" r="0.9" fill="#7aad97" fill-opacity="0.35"/>
  <circle cx="58" cy="72" r="0.9" fill="#7aad97" fill-opacity="0.35"/>
  <circle cx="65" cy="72" r="0.9" fill="#7aad97" fill-opacity="0.35"/>
  <circle cx="72" cy="72" r="0.9" fill="#7aad97" fill-opacity="0.35"/>

  <!-- Center circle -->
  <circle cx="50" cy="50" r="5.5" fill="#7aad97" fill-opacity="0.9"/>
</svg>
